<mxfile host="app.diagrams.net" modified="2022-10-24T07:18:23.181Z" agent="5.0 (Windows NT 10.0; Win64; x64) AppleWebKit/537.36 (KHTML, like Gecko) Chrome/106.0.0.0 Safari/537.36" etag="0AlnxMhehnsi-SqJ1q4-" version="20.4.1" type="github">
  <diagram id="YKlcgn2YApg5S6SSq631" name="Page-1">
    <mxGraphModel dx="1038" dy="1818" grid="1" gridSize="10" guides="1" tooltips="1" connect="1" arrows="1" fold="1" page="1" pageScale="1" pageWidth="850" pageHeight="1100" math="0" shadow="0">
      <root>
        <mxCell id="0" />
        <mxCell id="1" parent="0" />
        <mxCell id="lN6HmynDONI7tCiRwWhm-1" value="Focus Question: What is Extreme programming&lt;br&gt;&lt;div style=&quot;font-size: calc(0.875em); line-height: 1.6; position: relative; z-index: 0; color: rgb(32, 33, 34); font-family: sans-serif; text-align: start;&quot; class=&quot;vector-body&quot; id=&quot;bodyContent&quot;&gt;&lt;/div&gt;" style="whiteSpace=wrap;html=1;" vertex="1" parent="1">
          <mxGeometry x="220" y="-90" width="290" height="60" as="geometry" />
        </mxCell>
        <mxCell id="lN6HmynDONI7tCiRwWhm-2" value="Goals" style="whiteSpace=wrap;html=1;" vertex="1" parent="1">
          <mxGeometry x="70" y="180" width="120" height="60" as="geometry" />
        </mxCell>
        <mxCell id="lN6HmynDONI7tCiRwWhm-3" value="Activities" style="whiteSpace=wrap;html=1;" vertex="1" parent="1">
          <mxGeometry x="410" y="180" width="120" height="60" as="geometry" />
        </mxCell>
        <mxCell id="lN6HmynDONI7tCiRwWhm-4" value="Rules" style="whiteSpace=wrap;html=1;" vertex="1" parent="1">
          <mxGeometry x="570" y="180" width="120" height="60" as="geometry" />
        </mxCell>
        <mxCell id="lN6HmynDONI7tCiRwWhm-6" value="Values" style="whiteSpace=wrap;html=1;" vertex="1" parent="1">
          <mxGeometry x="235" y="180" width="120" height="60" as="geometry" />
        </mxCell>
        <mxCell id="lN6HmynDONI7tCiRwWhm-7" value="Principles" style="whiteSpace=wrap;html=1;" vertex="1" parent="1">
          <mxGeometry x="720" y="180" width="120" height="60" as="geometry" />
        </mxCell>
        <mxCell id="lN6HmynDONI7tCiRwWhm-8" value="&lt;span style=&quot;color: rgb(36, 36, 36); font-family: -apple-system, BlinkMacSystemFont, &amp;quot;Segoe UI&amp;quot;, system-ui, &amp;quot;Apple Color Emoji&amp;quot;, &amp;quot;Segoe UI Emoji&amp;quot;, &amp;quot;Segoe UI Web&amp;quot;, sans-serif; font-size: 14px; text-align: start; background-color: rgb(255, 255, 255);&quot;&gt;the cost of changes in requirements&lt;/span&gt;" style="whiteSpace=wrap;html=1;" vertex="1" parent="1">
          <mxGeometry x="70" y="370" width="120" height="60" as="geometry" />
        </mxCell>
        <mxCell id="lN6HmynDONI7tCiRwWhm-9" value="&lt;span style=&quot;color: rgb(36, 36, 36); font-family: -apple-system, BlinkMacSystemFont, &amp;quot;Segoe UI&amp;quot;, system-ui, &amp;quot;Apple Color Emoji&amp;quot;, &amp;quot;Segoe UI Emoji&amp;quot;, &amp;quot;Segoe UI Web&amp;quot;, sans-serif; font-size: 14px; text-align: start; background-color: rgb(255, 255, 255);&quot;&gt;multiple short development cycles&lt;/span&gt;" style="whiteSpace=wrap;html=1;" vertex="1" parent="1">
          <mxGeometry x="70" y="600" width="120" height="60" as="geometry" />
        </mxCell>
        <mxCell id="lN6HmynDONI7tCiRwWhm-10" value="reduce" style="edgeStyle=none;orthogonalLoop=1;jettySize=auto;html=1;rounded=0;" edge="1" parent="1" source="lN6HmynDONI7tCiRwWhm-2" target="lN6HmynDONI7tCiRwWhm-8">
          <mxGeometry width="80" relative="1" as="geometry">
            <mxPoint x="120" y="250" as="sourcePoint" />
            <mxPoint x="200" y="250" as="targetPoint" />
            <Array as="points" />
          </mxGeometry>
        </mxCell>
        <mxCell id="lN6HmynDONI7tCiRwWhm-29" style="edgeStyle=orthogonalEdgeStyle;rounded=0;orthogonalLoop=1;jettySize=auto;html=1;entryX=0.5;entryY=0;entryDx=0;entryDy=0;" edge="1" parent="1" source="lN6HmynDONI7tCiRwWhm-12" target="lN6HmynDONI7tCiRwWhm-21">
          <mxGeometry relative="1" as="geometry" />
        </mxCell>
        <mxCell id="lN6HmynDONI7tCiRwWhm-12" value="Extreme Programming" style="whiteSpace=wrap;html=1;" vertex="1" parent="1">
          <mxGeometry x="305" y="20" width="120" height="60" as="geometry" />
        </mxCell>
        <mxCell id="lN6HmynDONI7tCiRwWhm-13" value="have" style="edgeStyle=none;orthogonalLoop=1;jettySize=auto;html=1;rounded=0;entryX=0.5;entryY=0;entryDx=0;entryDy=0;exitX=0.5;exitY=1;exitDx=0;exitDy=0;" edge="1" parent="1" source="lN6HmynDONI7tCiRwWhm-8" target="lN6HmynDONI7tCiRwWhm-9">
          <mxGeometry width="80" relative="1" as="geometry">
            <mxPoint x="160" y="440" as="sourcePoint" />
            <mxPoint x="240" y="440" as="targetPoint" />
            <Array as="points">
              <mxPoint x="130" y="450" />
            </Array>
          </mxGeometry>
        </mxCell>
        <mxCell id="lN6HmynDONI7tCiRwWhm-30" style="edgeStyle=orthogonalEdgeStyle;rounded=0;orthogonalLoop=1;jettySize=auto;html=1;entryX=0.5;entryY=0;entryDx=0;entryDy=0;" edge="1" parent="1" source="lN6HmynDONI7tCiRwWhm-21" target="lN6HmynDONI7tCiRwWhm-2">
          <mxGeometry relative="1" as="geometry" />
        </mxCell>
        <mxCell id="lN6HmynDONI7tCiRwWhm-31" style="edgeStyle=orthogonalEdgeStyle;rounded=0;orthogonalLoop=1;jettySize=auto;html=1;entryX=0.5;entryY=0;entryDx=0;entryDy=0;" edge="1" parent="1" source="lN6HmynDONI7tCiRwWhm-21" target="lN6HmynDONI7tCiRwWhm-6">
          <mxGeometry relative="1" as="geometry" />
        </mxCell>
        <mxCell id="lN6HmynDONI7tCiRwWhm-32" style="edgeStyle=orthogonalEdgeStyle;rounded=0;orthogonalLoop=1;jettySize=auto;html=1;entryX=0.5;entryY=0;entryDx=0;entryDy=0;" edge="1" parent="1" source="lN6HmynDONI7tCiRwWhm-21" target="lN6HmynDONI7tCiRwWhm-3">
          <mxGeometry relative="1" as="geometry" />
        </mxCell>
        <mxCell id="lN6HmynDONI7tCiRwWhm-33" style="edgeStyle=orthogonalEdgeStyle;rounded=0;orthogonalLoop=1;jettySize=auto;html=1;entryX=0.5;entryY=0;entryDx=0;entryDy=0;" edge="1" parent="1" source="lN6HmynDONI7tCiRwWhm-21" target="lN6HmynDONI7tCiRwWhm-4">
          <mxGeometry relative="1" as="geometry" />
        </mxCell>
        <mxCell id="lN6HmynDONI7tCiRwWhm-34" style="edgeStyle=orthogonalEdgeStyle;rounded=0;orthogonalLoop=1;jettySize=auto;html=1;entryX=0.5;entryY=0;entryDx=0;entryDy=0;" edge="1" parent="1" source="lN6HmynDONI7tCiRwWhm-21" target="lN6HmynDONI7tCiRwWhm-7">
          <mxGeometry relative="1" as="geometry" />
        </mxCell>
        <mxCell id="lN6HmynDONI7tCiRwWhm-21" value="have" style="text;html=1;strokeColor=none;fillColor=none;align=center;verticalAlign=middle;whiteSpace=wrap;rounded=0;" vertex="1" parent="1">
          <mxGeometry x="335" y="120" width="60" height="30" as="geometry" />
        </mxCell>
      </root>
    </mxGraphModel>
  </diagram>
</mxfile>
